<svg width="348" height="82" viewBox="0 0 348 82" fill="none" xmlns="http://www.w3.org/2000/svg">
<path d="M123.411 27.4688L114.805 44.0442V53.473H110.54V44.0442L101.897 27.4688H106.649L112.673 40.2277L118.697 27.4688H123.411ZM135.738 53.8098C133.793 53.8098 132.034 53.3732 130.463 52.5002C128.891 51.6022 127.657 50.355 126.759 48.7586C125.861 47.1372 125.412 45.2664 125.412 43.1462C125.412 41.0509 125.873 39.1925 126.796 37.5712C127.719 35.9498 128.979 34.7026 130.575 33.8295C132.171 32.9565 133.955 32.52 135.926 32.52C137.896 32.52 139.68 32.9565 141.276 33.8295C142.872 34.7026 144.132 35.9498 145.055 37.5712C145.978 39.1925 146.439 41.0509 146.439 43.1462C146.439 45.2415 145.966 47.0998 145.018 48.7212C144.07 50.3425 142.773 51.6022 141.126 52.5002C139.505 53.3732 137.709 53.8098 135.738 53.8098ZM135.738 50.1056C136.836 50.1056 137.859 49.8437 138.807 49.3198C139.779 48.796 140.565 48.0103 141.164 46.9626C141.762 45.915 142.062 44.6428 142.062 43.1462C142.062 41.6495 141.775 40.3898 141.201 39.3671C140.627 38.3195 139.867 37.5337 138.919 37.0099C137.971 36.4861 136.948 36.2242 135.851 36.2242C134.753 36.2242 133.73 36.4861 132.783 37.0099C131.86 37.5337 131.124 38.3195 130.575 39.3671C130.026 40.3898 129.752 41.6495 129.752 43.1462C129.752 45.3662 130.313 47.0873 131.436 48.3096C132.583 49.5069 134.017 50.1056 135.738 50.1056ZM169.327 32.8567V53.473H165.061V51.041C164.388 51.8891 163.502 52.5626 162.405 53.0614C161.332 53.5354 160.185 53.7724 158.962 53.7724C157.341 53.7724 155.882 53.4356 154.585 52.7621C153.313 52.0886 152.302 51.0909 151.554 49.7688C150.831 48.4468 150.469 46.8504 150.469 44.9796V32.8567H154.697V44.3435C154.697 46.1893 155.158 47.6112 156.081 48.6089C157.004 49.5817 158.264 50.0682 159.86 50.0682C161.457 50.0682 162.717 49.5817 163.639 48.6089C164.587 47.6112 165.061 46.1893 165.061 44.3435V32.8567H169.327ZM179.22 35.85C179.844 34.8024 180.667 33.9917 181.69 33.418C182.737 32.8193 183.972 32.52 185.394 32.52V36.9351H184.309C182.637 36.9351 181.365 37.3591 180.492 38.2072C179.644 39.0553 179.22 40.527 179.22 42.6223V53.473H174.955V32.8567H179.22V35.85ZM197.883 53.7349C196.137 53.7349 194.565 53.4356 193.168 52.8369C191.772 52.2133 190.674 51.3403 189.876 50.2178C189.078 49.0953 188.678 47.7858 188.678 46.2891H193.243C193.343 47.4116 193.78 48.3345 194.553 49.0579C195.351 49.7813 196.461 50.143 197.883 50.143C199.355 50.143 200.502 49.7938 201.325 49.0953C202.148 48.372 202.56 47.449 202.56 46.3265C202.56 45.4535 202.298 44.7426 201.774 44.1938C201.275 43.645 200.639 43.221 199.866 42.9217C199.118 42.6223 198.07 42.2981 196.723 41.9488C195.027 41.4999 193.642 41.0509 192.57 40.6019C191.522 40.1279 190.624 39.4046 189.876 38.4317C189.127 37.4589 188.753 36.1618 188.753 34.5404C188.753 33.0438 189.127 31.7342 189.876 30.6118C190.624 29.4893 191.672 28.6287 193.019 28.03C194.366 27.4314 195.925 27.1321 197.696 27.1321C200.215 27.1321 202.273 27.7681 203.869 29.0403C205.491 30.2875 206.389 32.0086 206.563 34.2037H201.849C201.774 33.2558 201.325 32.4451 200.502 31.7717C199.679 31.0982 198.594 30.7614 197.247 30.7614C196.025 30.7614 195.027 31.0732 194.253 31.6968C193.48 32.3204 193.094 33.2184 193.094 34.3908C193.094 35.189 193.331 35.85 193.804 36.3738C194.303 36.8727 194.927 37.2718 195.675 37.5712C196.424 37.8705 197.446 38.1948 198.743 38.544C200.465 39.0179 201.861 39.4919 202.934 39.9658C204.032 40.4397 204.955 41.1756 205.703 42.1733C206.476 43.1462 206.863 44.4557 206.863 46.102C206.863 47.4241 206.501 48.6713 205.778 49.8437C205.079 51.016 204.044 51.9639 202.672 52.6873C201.325 53.3857 199.729 53.7349 197.883 53.7349ZM216.872 36.3364V47.7484C216.872 48.5216 217.047 49.0829 217.396 49.4321C217.77 49.7564 218.394 49.9185 219.267 49.9185H221.886V53.473H218.518C216.598 53.473 215.126 53.024 214.103 52.126C213.081 51.2281 212.569 49.7688 212.569 47.7484V36.3364H210.137V32.8567H212.569V27.7307H216.872V32.8567H221.886V36.3364H216.872ZM234.76 53.8098C232.814 53.8098 231.055 53.3732 229.484 52.5002C227.913 51.6022 226.678 50.355 225.78 48.7586C224.882 47.1372 224.433 45.2664 224.433 43.1462C224.433 41.0509 224.894 39.1925 225.817 37.5712C226.74 35.9498 228 34.7026 229.596 33.8295C231.193 32.9565 232.976 32.52 234.947 32.52C236.917 32.52 238.701 32.9565 240.297 33.8295C241.894 34.7026 243.153 35.9498 244.076 37.5712C244.999 39.1925 245.461 41.0509 245.461 43.1462C245.461 45.2415 244.987 47.0998 244.039 48.7212C243.091 50.3425 241.794 51.6022 240.148 52.5002C238.526 53.3732 236.73 53.8098 234.76 53.8098ZM234.76 50.1056C235.857 50.1056 236.88 49.8437 237.828 49.3198C238.801 48.796 239.586 48.0103 240.185 46.9626C240.784 45.915 241.083 44.6428 241.083 43.1462C241.083 41.6495 240.796 40.3898 240.222 39.3671C239.649 38.3195 238.888 37.5337 237.94 37.0099C236.992 36.4861 235.969 36.2242 234.872 36.2242C233.774 36.2242 232.752 36.4861 231.804 37.0099C230.881 37.5337 230.145 38.3195 229.596 39.3671C229.047 40.3898 228.773 41.6495 228.773 43.1462C228.773 45.3662 229.334 47.0873 230.457 48.3096C231.604 49.5069 233.039 50.1056 234.76 50.1056ZM253.943 35.85C254.566 34.8024 255.39 33.9917 256.412 33.418C257.46 32.8193 258.695 32.52 260.116 32.52V36.9351H259.031C257.36 36.9351 256.088 37.3591 255.215 38.2072C254.367 39.0553 253.943 40.527 253.943 42.6223V53.473H249.677V32.8567H253.943V35.85ZM262.615 43.0713C262.615 41.001 263.039 39.1676 263.888 37.5712C264.761 35.9747 265.933 34.74 267.405 33.867C268.901 32.969 270.548 32.52 272.344 32.52C273.965 32.52 275.374 32.8443 276.572 33.4928C277.794 34.1164 278.767 34.9021 279.49 35.85V32.8567H283.793V53.473H279.49V50.4049C278.767 51.3777 277.781 52.1884 276.534 52.8369C275.287 53.4855 273.865 53.8098 272.269 53.8098C270.498 53.8098 268.876 53.3608 267.405 52.4628C265.933 51.5399 264.761 50.2677 263.888 48.6463C263.039 47 262.615 45.1417 262.615 43.0713ZM279.49 43.1462C279.49 41.7244 279.191 40.4896 278.592 39.442C278.018 38.3943 277.258 37.5961 276.31 37.0473C275.362 36.4986 274.339 36.2242 273.242 36.2242C272.144 36.2242 271.121 36.4986 270.173 37.0473C269.226 37.5712 268.452 38.3569 267.854 39.4045C267.28 40.4273 266.993 41.6495 266.993 43.0713C266.993 44.4931 267.28 45.7404 267.854 46.8129C268.452 47.8855 269.226 48.7087 270.173 49.2824C271.146 49.8312 272.169 50.1056 273.242 50.1056C274.339 50.1056 275.362 49.8312 276.31 49.2824C277.258 48.7336 278.018 47.9354 278.592 46.8878C279.191 45.8152 279.49 44.568 279.49 43.1462ZM297.702 32.52C299.298 32.52 300.708 32.8443 301.93 33.4928C303.177 34.1164 304.15 34.9021 304.848 35.85V32.8567H309.151V53.8098C309.151 55.7055 308.752 57.3892 307.954 58.8609C307.156 60.3576 305.996 61.53 304.474 62.3781C302.978 63.2262 301.182 63.6502 299.086 63.6502C296.292 63.6502 293.973 62.9892 292.127 61.6672C290.281 60.3701 289.233 58.599 288.984 56.3541H293.212C293.536 57.4267 294.222 58.2872 295.27 58.9358C296.342 59.6093 297.615 59.946 299.086 59.946C300.807 59.946 302.192 59.4222 303.239 58.3745C304.312 57.3269 304.848 55.8053 304.848 53.8098V50.3675C304.125 51.3403 303.14 52.1635 301.892 52.8369C300.67 53.4855 299.273 53.8098 297.702 53.8098C295.906 53.8098 294.26 53.3608 292.763 52.4628C291.291 51.5399 290.119 50.2677 289.246 48.6463C288.398 47 287.974 45.1417 287.974 43.0713C287.974 41.001 288.398 39.1676 289.246 37.5712C290.119 35.9747 291.291 34.74 292.763 33.867C294.26 32.969 295.906 32.52 297.702 32.52ZM304.848 43.1462C304.848 41.7244 304.549 40.4896 303.95 39.442C303.377 38.3943 302.616 37.5961 301.668 37.0473C300.72 36.4986 299.697 36.2242 298.6 36.2242C297.502 36.2242 296.48 36.4986 295.532 37.0473C294.584 37.5712 293.811 38.3569 293.212 39.4045C292.638 40.4273 292.351 41.6495 292.351 43.0713C292.351 44.4931 292.638 45.7404 293.212 46.8129C293.811 47.8855 294.584 48.7087 295.532 49.2824C296.505 49.8312 297.527 50.1056 298.6 50.1056C299.697 50.1056 300.72 49.8312 301.668 49.2824C302.616 48.7336 303.377 47.9354 303.95 46.8878C304.549 45.8152 304.848 44.568 304.848 43.1462ZM333.649 42.6598C333.649 43.433 333.599 44.1315 333.499 44.7551H317.747C317.872 46.4014 318.483 47.7234 319.58 48.7212C320.678 49.7189 322.025 50.2178 323.621 50.2178C325.916 50.2178 327.538 49.2575 328.485 47.3368H333.088C332.464 49.2325 331.329 50.7915 329.683 52.0138C328.061 53.2111 326.041 53.8098 323.621 53.8098C321.651 53.8098 319.88 53.3732 318.308 52.5002C316.762 51.6022 315.539 50.355 314.641 48.7586C313.768 47.1372 313.332 45.2664 313.332 43.1462C313.332 41.0259 313.756 39.1676 314.604 37.5712C315.477 35.9498 316.687 34.7026 318.233 33.8295C319.805 32.9565 321.601 32.52 323.621 32.52C325.567 32.52 327.301 32.944 328.822 33.7921C330.344 34.6402 331.529 35.8375 332.377 37.3841C333.225 38.9057 333.649 40.6642 333.649 42.6598ZM329.196 41.3128C329.171 39.7413 328.61 38.4816 327.513 37.5337C326.415 36.5859 325.056 36.1119 323.434 36.1119C321.963 36.1119 320.703 36.5859 319.655 37.5337C318.608 38.4567 317.984 39.7164 317.784 41.3128H329.196ZM343.197 27.4688L342.711 45.6156H339.156L338.67 27.4688H343.197ZM341.064 53.7349C340.291 53.7349 339.642 53.473 339.119 52.9492C338.595 52.4254 338.333 51.7768 338.333 51.0036C338.333 50.2303 338.595 49.5817 339.119 49.0579C339.642 48.5341 340.291 48.2722 341.064 48.2722C341.813 48.2722 342.449 48.5341 342.972 49.0579C343.496 49.5817 343.758 50.2303 343.758 51.0036C343.758 51.7768 343.496 52.4254 342.972 52.9492C342.449 53.473 341.813 53.7349 341.064 53.7349Z" fill="white"/>
<rect opacity="0.2" width="74.8323" height="74.8323" rx="37.4161" fill="#fff"/>
<rect x="32.7393" y="31.1801" width="49.8882" height="49.8882" rx="24.9441" fill="white"/>
</svg>
